<mxfile host="app.diagrams.net" modified="2022-03-12T11:04:36.207Z" agent="5.0 (Windows NT 10.0; Win64; x64) AppleWebKit/537.36 (KHTML, like Gecko) Chrome/99.0.4844.51 Safari/537.36" etag="dV5RqMJzohcSSfyugo6R" version="17.1.2" type="github">
  <diagram id="xdaXQ0qLjzjdGGGDN56B" name="Page-1">
    <mxGraphModel dx="965" dy="533" grid="1" gridSize="10" guides="1" tooltips="1" connect="1" arrows="1" fold="1" page="1" pageScale="1" pageWidth="827" pageHeight="1169" math="0" shadow="0">
      <root>
        <mxCell id="0" />
        <mxCell id="1" parent="0" />
        <mxCell id="6gokEJkr8km1Udkk8NWj-1" value="&lt;font style=&quot;font-size: 18px&quot;&gt;&lt;b&gt;LikeBox UI&lt;/b&gt;&lt;/font&gt;" style="rounded=0;whiteSpace=wrap;html=1;" vertex="1" parent="1">
          <mxGeometry x="210" y="50" width="510" height="60" as="geometry" />
        </mxCell>
        <mxCell id="6gokEJkr8km1Udkk8NWj-2" value="Firebase Authentication" style="rounded=0;whiteSpace=wrap;html=1;fontSize=18;" vertex="1" parent="1">
          <mxGeometry x="220" y="200" width="120" height="60" as="geometry" />
        </mxCell>
        <mxCell id="6gokEJkr8km1Udkk8NWj-3" value="" style="curved=1;endArrow=classic;html=1;rounded=0;fontSize=18;exitX=0.278;exitY=1.031;exitDx=0;exitDy=0;exitPerimeter=0;entryX=0.444;entryY=0.017;entryDx=0;entryDy=0;entryPerimeter=0;" edge="1" parent="1" source="6gokEJkr8km1Udkk8NWj-1" target="6gokEJkr8km1Udkk8NWj-2">
          <mxGeometry width="50" height="50" relative="1" as="geometry">
            <mxPoint x="390" y="290" as="sourcePoint" />
            <mxPoint x="370" y="200" as="targetPoint" />
            <Array as="points">
              <mxPoint x="270" y="130" />
            </Array>
          </mxGeometry>
        </mxCell>
        <mxCell id="6gokEJkr8km1Udkk8NWj-5" value="Firestore Database" style="rounded=0;whiteSpace=wrap;html=1;fontSize=18;" vertex="1" parent="1">
          <mxGeometry x="210" y="320" width="510" height="60" as="geometry" />
        </mxCell>
        <mxCell id="6gokEJkr8km1Udkk8NWj-6" value="" style="shape=flexArrow;endArrow=classic;startArrow=classic;html=1;rounded=0;fontSize=18;entryX=0.5;entryY=1;entryDx=0;entryDy=0;exitX=0.5;exitY=0;exitDx=0;exitDy=0;" edge="1" parent="1" source="6gokEJkr8km1Udkk8NWj-5" target="6gokEJkr8km1Udkk8NWj-1">
          <mxGeometry width="100" height="100" relative="1" as="geometry">
            <mxPoint x="390" y="320" as="sourcePoint" />
            <mxPoint x="490" y="220" as="targetPoint" />
          </mxGeometry>
        </mxCell>
      </root>
    </mxGraphModel>
  </diagram>
</mxfile>
